<?xml version="1.0" encoding="us-ascii" standalone="no"?><svg xmlns="http://www.w3.org/2000/svg" xmlns:xlink="http://www.w3.org/1999/xlink" contentStyleType="text/css" height="753px" preserveAspectRatio="none" style="width:205px;height:753px;background:#FFFFFF;" version="1.1" viewBox="0 0 205 753" width="205px" zoomAndPan="magnify"><defs/><g><ellipse cx="90" cy="20" fill="#222222" rx="10" ry="10" style="stroke:#222222;stroke-width:1.0;"/><rect fill="#F1F1F1" height="33.9688" rx="12.5" ry="12.5" style="stroke:#181818;stroke-width:0.5;" width="129" x="25.5" y="50"/><text fill="#000000" font-family="sans-serif" font-size="12" lengthAdjust="spacing" textLength="109" x="35.5" y="71.1387">User Registration</text><rect fill="#F1F1F1" height="33.9688" rx="12.5" ry="12.5" style="stroke:#181818;stroke-width:0.5;" width="86" x="47" y="103.9688"/><text fill="#000000" font-family="sans-serif" font-size="12" lengthAdjust="spacing" textLength="66" x="57" y="125.1074">User Login</text><rect fill="#F1F1F1" height="33.9688" rx="12.5" ry="12.5" style="stroke:#181818;stroke-width:0.5;" width="153" x="13.5" y="206.3398"/><text fill="#000000" font-family="sans-serif" font-size="12" lengthAdjust="spacing" textLength="133" x="23.5" y="227.4785">Initiate Key Exchange</text><rect fill="#F1F1F1" height="33.9688" rx="12.5" ry="12.5" style="stroke:#181818;stroke-width:0.5;" width="92" x="44" y="260.3086"/><text fill="#000000" font-family="sans-serif" font-size="12" lengthAdjust="spacing" textLength="72" x="54" y="281.4473">Encrypt File</text><rect fill="#F1F1F1" height="33.9688" rx="12.5" ry="12.5" style="stroke:#181818;stroke-width:0.5;" width="77" x="51.5" y="314.2773"/><text fill="#000000" font-family="sans-serif" font-size="12" lengthAdjust="spacing" textLength="57" x="61.5" y="335.416">Send File</text><polygon fill="#F1F1F1" points="37,157.9375,143,157.9375,155,169.9375,143,181.9375,37,181.9375,25,169.9375,37,157.9375" style="stroke:#181818;stroke-width:0.5;"/><text fill="#000000" font-family="sans-serif" font-size="11" lengthAdjust="spacing" textLength="20" x="94" y="192.1479">yes</text><text fill="#000000" font-family="sans-serif" font-size="11" lengthAdjust="spacing" textLength="106" x="37" y="173.7456">Want to share file?</text><text fill="#000000" font-family="sans-serif" font-size="11" lengthAdjust="spacing" textLength="14" x="155" y="167.3433">no</text><polygon fill="#F1F1F1" points="90,368.2461,102,380.2461,90,392.2461,78,380.2461,90,368.2461" style="stroke:#181818;stroke-width:0.5;"/><rect fill="#F1F1F1" height="33.9688" rx="12.5" ry="12.5" style="stroke:#181818;stroke-width:0.5;" width="158" x="11" y="460.6484"/><text fill="#000000" font-family="sans-serif" font-size="12" lengthAdjust="spacing" textLength="138" x="21" y="481.7871">Receive Key Exchange</text><rect fill="#F1F1F1" height="33.9688" rx="12.5" ry="12.5" style="stroke:#181818;stroke-width:0.5;" width="93" x="43.5" y="514.6172"/><text fill="#000000" font-family="sans-serif" font-size="12" lengthAdjust="spacing" textLength="73" x="53.5" y="535.7559">Decrypt File</text><rect fill="#F1F1F1" height="33.9688" rx="12.5" ry="12.5" style="stroke:#181818;stroke-width:0.5;" width="79" x="50.5" y="568.5859"/><text fill="#000000" font-family="sans-serif" font-size="12" lengthAdjust="spacing" textLength="59" x="60.5" y="589.7246">Store File</text><polygon fill="#F1F1F1" points="55,412.2461,125,412.2461,137,424.2461,125,436.2461,55,436.2461,43,424.2461,55,412.2461" style="stroke:#181818;stroke-width:0.5;"/><text fill="#000000" font-family="sans-serif" font-size="11" lengthAdjust="spacing" textLength="20" x="94" y="446.4565">yes</text><text fill="#000000" font-family="sans-serif" font-size="11" lengthAdjust="spacing" textLength="70" x="55" y="428.0542">Receive file?</text><text fill="#000000" font-family="sans-serif" font-size="11" lengthAdjust="spacing" textLength="14" x="137" y="421.6519">no</text><polygon fill="#F1F1F1" points="90,622.5547,102,634.5547,90,646.5547,78,634.5547,90,622.5547" style="stroke:#181818;stroke-width:0.5;"/><rect fill="#F1F1F1" height="33.9688" rx="12.5" ry="12.5" style="stroke:#181818;stroke-width:0.5;" width="81" x="49.5" y="666.5547"/><text fill="#000000" font-family="sans-serif" font-size="12" lengthAdjust="spacing" textLength="61" x="59.5" y="687.6934">View Logs</text><ellipse cx="90" cy="731.5234" fill="none" rx="11" ry="11" style="stroke:#222222;stroke-width:1.0;"/><ellipse cx="90" cy="731.5234" fill="#222222" rx="6" ry="6" style="stroke:#222222;stroke-width:1.0;"/><line style="stroke:#181818;stroke-width:1.0;" x1="90" x2="90" y1="30" y2="50"/><polygon fill="#181818" points="86,40,90,50,94,40,90,44" style="stroke:#181818;stroke-width:1.0;"/><line style="stroke:#181818;stroke-width:1.0;" x1="90" x2="90" y1="83.9688" y2="103.9688"/><polygon fill="#181818" points="86,93.9688,90,103.9688,94,93.9688,90,97.9688" style="stroke:#181818;stroke-width:1.0;"/><line style="stroke:#181818;stroke-width:1.0;" x1="90" x2="90" y1="240.3086" y2="260.3086"/><polygon fill="#181818" points="86,250.3086,90,260.3086,94,250.3086,90,254.3086" style="stroke:#181818;stroke-width:1.0;"/><line style="stroke:#181818;stroke-width:1.0;" x1="90" x2="90" y1="294.2773" y2="314.2773"/><polygon fill="#181818" points="86,304.2773,90,314.2773,94,304.2773,90,308.2773" style="stroke:#181818;stroke-width:1.0;"/><line style="stroke:#181818;stroke-width:1.0;" x1="90" x2="90" y1="181.9375" y2="206.3398"/><polygon fill="#181818" points="86,196.3398,90,206.3398,94,196.3398,90,200.3398" style="stroke:#181818;stroke-width:1.0;"/><line style="stroke:#181818;stroke-width:1.0;" x1="155" x2="176.5" y1="169.9375" y2="169.9375"/><polygon fill="#181818" points="172.5,267.293,176.5,277.293,180.5,267.293,176.5,271.293" style="stroke:#181818;stroke-width:1.0;"/><line style="stroke:#181818;stroke-width:1.0;" x1="176.5" x2="176.5" y1="169.9375" y2="380.2461"/><line style="stroke:#181818;stroke-width:1.0;" x1="176.5" x2="102" y1="380.2461" y2="380.2461"/><polygon fill="#181818" points="112,376.2461,102,380.2461,112,384.2461,108,380.2461" style="stroke:#181818;stroke-width:1.0;"/><line style="stroke:#181818;stroke-width:1.0;" x1="90" x2="90" y1="348.2461" y2="368.2461"/><polygon fill="#181818" points="86,358.2461,90,368.2461,94,358.2461,90,362.2461" style="stroke:#181818;stroke-width:1.0;"/><line style="stroke:#181818;stroke-width:1.0;" x1="90" x2="90" y1="137.9375" y2="157.9375"/><polygon fill="#181818" points="86,147.9375,90,157.9375,94,147.9375,90,151.9375" style="stroke:#181818;stroke-width:1.0;"/><line style="stroke:#181818;stroke-width:1.0;" x1="90" x2="90" y1="494.6172" y2="514.6172"/><polygon fill="#181818" points="86,504.6172,90,514.6172,94,504.6172,90,508.6172" style="stroke:#181818;stroke-width:1.0;"/><line style="stroke:#181818;stroke-width:1.0;" x1="90" x2="90" y1="548.5859" y2="568.5859"/><polygon fill="#181818" points="86,558.5859,90,568.5859,94,558.5859,90,562.5859" style="stroke:#181818;stroke-width:1.0;"/><line style="stroke:#181818;stroke-width:1.0;" x1="90" x2="90" y1="436.2461" y2="460.6484"/><polygon fill="#181818" points="86,450.6484,90,460.6484,94,450.6484,90,454.6484" style="stroke:#181818;stroke-width:1.0;"/><line style="stroke:#181818;stroke-width:1.0;" x1="137" x2="179" y1="424.2461" y2="424.2461"/><polygon fill="#181818" points="175,521.6016,179,531.6016,183,521.6016,179,525.6016" style="stroke:#181818;stroke-width:1.0;"/><line style="stroke:#181818;stroke-width:1.0;" x1="179" x2="179" y1="424.2461" y2="634.5547"/><line style="stroke:#181818;stroke-width:1.0;" x1="179" x2="102" y1="634.5547" y2="634.5547"/><polygon fill="#181818" points="112,630.5547,102,634.5547,112,638.5547,108,634.5547" style="stroke:#181818;stroke-width:1.0;"/><line style="stroke:#181818;stroke-width:1.0;" x1="90" x2="90" y1="602.5547" y2="622.5547"/><polygon fill="#181818" points="86,612.5547,90,622.5547,94,612.5547,90,616.5547" style="stroke:#181818;stroke-width:1.0;"/><line style="stroke:#181818;stroke-width:1.0;" x1="90" x2="90" y1="392.2461" y2="412.2461"/><polygon fill="#181818" points="86,402.2461,90,412.2461,94,402.2461,90,406.2461" style="stroke:#181818;stroke-width:1.0;"/><line style="stroke:#181818;stroke-width:1.0;" x1="90" x2="90" y1="646.5547" y2="666.5547"/><polygon fill="#181818" points="86,656.5547,90,666.5547,94,656.5547,90,660.5547" style="stroke:#181818;stroke-width:1.0;"/><line style="stroke:#181818;stroke-width:1.0;" x1="90" x2="90" y1="700.5234" y2="720.5234"/><polygon fill="#181818" points="86,710.5234,90,720.5234,94,710.5234,90,714.5234" style="stroke:#181818;stroke-width:1.0;"/><!--SRC=[TP113e9034NtFKLtmXLWOKp0nEWAewwRiK0JdI4p3JgtTr3SQ5Z-zzEyjYlS69LHD68br7cw0mGbhm35AR37XZi9wad5sN9c1zT92Y0jPXUoYkemzEGPMxdnEaVjsM8MEUI0MEoig90oxZbY_JGzsOxBgQcjyN5GtAQnDpYolSw9Ru4niow7nAJzs1esBEE2vrl-QIh-rQXBoovuYhFmOxenbDClt00l]--></g></svg>