<?xml version="1.0" encoding="us-ascii" standalone="no"?><svg xmlns="http://www.w3.org/2000/svg" xmlns:xlink="http://www.w3.org/1999/xlink" contentStyleType="text/css" height="216px" preserveAspectRatio="none" style="width:1166px;height:216px;background:#FFFFFF;" version="1.1" viewBox="0 0 1166 216" width="1166px" zoomAndPan="magnify"><defs/><g><!--cluster User Management--><g id="cluster_User Management"><path d="M8.5,6 L152.5,6 A3.75,3.75 0 0 1 155,8.5 L162,28.2969 L269.5,28.2969 A2.5,2.5 0 0 1 272,30.7969 L272,207.09 A2.5,2.5 0 0 1 269.5,209.59 L8.5,209.59 A2.5,2.5 0 0 1 6,207.09 L6,8.5 A2.5,2.5 0 0 1 8.5,6 " fill="none" style="stroke:#000000;stroke-width:1.5;"/><line style="stroke:#000000;stroke-width:1.5;" x1="6" x2="162" y1="28.2969" y2="28.2969"/><text fill="#000000" font-family="sans-serif" font-size="14" font-weight="bold" lengthAdjust="spacing" textLength="143" x="10" y="20.9951">User Management</text></g><!--cluster File Management--><g id="cluster_File Management"><path d="M298.5,6 L432.5,6 A3.75,3.75 0 0 1 435,8.5 L442,28.2969 L714.5,28.2969 A2.5,2.5 0 0 1 717,30.7969 L717,207.09 A2.5,2.5 0 0 1 714.5,209.59 L298.5,209.59 A2.5,2.5 0 0 1 296,207.09 L296,8.5 A2.5,2.5 0 0 1 298.5,6 " fill="none" style="stroke:#000000;stroke-width:1.5;"/><line style="stroke:#000000;stroke-width:1.5;" x1="296" x2="442" y1="28.2969" y2="28.2969"/><text fill="#000000" font-family="sans-serif" font-size="14" font-weight="bold" lengthAdjust="spacing" textLength="133" x="300" y="20.9951">File Management</text></g><!--cluster Peer-to-Peer Communication--><g id="cluster_Peer-to-Peer Communication"><path d="M829.5,6 L1058.5,6 A3.75,3.75 0 0 1 1061,8.5 L1068,28.2969 L1156.5,28.2969 A2.5,2.5 0 0 1 1159,30.7969 L1159,100.79 A2.5,2.5 0 0 1 1156.5,103.29 L829.5,103.29 A2.5,2.5 0 0 1 827,100.79 L827,8.5 A2.5,2.5 0 0 1 829.5,6 " fill="none" style="stroke:#000000;stroke-width:1.5;"/><line style="stroke:#000000;stroke-width:1.5;" x1="827" x2="1068" y1="28.2969" y2="28.2969"/><text fill="#000000" font-family="sans-serif" font-size="14" font-weight="bold" lengthAdjust="spacing" textLength="228" x="831" y="20.9951">Peer-to-Peer Communication</text></g><!--entity Registration--><g id="elem_Registration"><rect fill="#F1F1F1" height="46.2969" rx="2.5" ry="2.5" style="stroke:#181818;stroke-width:0.5;" width="123" x="21.5" y="41"/><rect fill="#F1F1F1" height="10" style="stroke:#181818;stroke-width:0.5;" width="15" x="124.5" y="46"/><rect fill="#F1F1F1" height="2" style="stroke:#181818;stroke-width:0.5;" width="4" x="122.5" y="48"/><rect fill="#F1F1F1" height="2" style="stroke:#181818;stroke-width:0.5;" width="4" x="122.5" y="52"/><text fill="#000000" font-family="sans-serif" font-size="14" lengthAdjust="spacing" textLength="83" x="36.5" y="73.9951">Registration</text></g><!--entity Login--><g id="elem_Login"><rect fill="#F1F1F1" height="46.2969" rx="2.5" ry="2.5" style="stroke:#181818;stroke-width:0.5;" width="77" x="179.5" y="41"/><rect fill="#F1F1F1" height="10" style="stroke:#181818;stroke-width:0.5;" width="15" x="236.5" y="46"/><rect fill="#F1F1F1" height="2" style="stroke:#181818;stroke-width:0.5;" width="4" x="234.5" y="48"/><rect fill="#F1F1F1" height="2" style="stroke:#181818;stroke-width:0.5;" width="4" x="234.5" y="52"/><text fill="#000000" font-family="sans-serif" font-size="14" lengthAdjust="spacing" textLength="37" x="194.5" y="73.9951">Login</text></g><!--entity Key Exchange--><g id="elem_Key Exchange"><rect fill="#F1F1F1" height="46.2969" rx="2.5" ry="2.5" style="stroke:#181818;stroke-width:0.5;" width="137" x="22.5" y="147.29"/><rect fill="#F1F1F1" height="10" style="stroke:#181818;stroke-width:0.5;" width="15" x="139.5" y="152.29"/><rect fill="#F1F1F1" height="2" style="stroke:#181818;stroke-width:0.5;" width="4" x="137.5" y="154.29"/><rect fill="#F1F1F1" height="2" style="stroke:#181818;stroke-width:0.5;" width="4" x="137.5" y="158.29"/><text fill="#000000" font-family="sans-serif" font-size="14" lengthAdjust="spacing" textLength="97" x="37.5" y="180.2851">Key Exchange</text></g><!--entity CRUD Operations--><g id="elem_CRUD Operations"><rect fill="#F1F1F1" height="46.2969" rx="2.5" ry="2.5" style="stroke:#181818;stroke-width:0.5;" width="161" x="311.5" y="41"/><rect fill="#F1F1F1" height="10" style="stroke:#181818;stroke-width:0.5;" width="15" x="452.5" y="46"/><rect fill="#F1F1F1" height="2" style="stroke:#181818;stroke-width:0.5;" width="4" x="450.5" y="48"/><rect fill="#F1F1F1" height="2" style="stroke:#181818;stroke-width:0.5;" width="4" x="450.5" y="52"/><text fill="#000000" font-family="sans-serif" font-size="14" lengthAdjust="spacing" textLength="121" x="326.5" y="73.9951">CRUD Operations</text></g><!--entity Encryption/Decryption--><g id="elem_Encryption/Decryption"><rect fill="#F1F1F1" height="46.2969" rx="2.5" ry="2.5" style="stroke:#181818;stroke-width:0.5;" width="193" x="507.5" y="41"/><rect fill="#F1F1F1" height="10" style="stroke:#181818;stroke-width:0.5;" width="15" x="680.5" y="46"/><rect fill="#F1F1F1" height="2" style="stroke:#181818;stroke-width:0.5;" width="4" x="678.5" y="48"/><rect fill="#F1F1F1" height="2" style="stroke:#181818;stroke-width:0.5;" width="4" x="678.5" y="52"/><text fill="#000000" font-family="sans-serif" font-size="14" lengthAdjust="spacing" textLength="153" x="522.5" y="73.9951">Encryption/Decryption</text></g><!--entity Version Control--><g id="elem_Version Control"><rect fill="#F1F1F1" height="46.2969" rx="2.5" ry="2.5" style="stroke:#181818;stroke-width:0.5;" width="146" x="319" y="147.29"/><rect fill="#F1F1F1" height="10" style="stroke:#181818;stroke-width:0.5;" width="15" x="445" y="152.29"/><rect fill="#F1F1F1" height="2" style="stroke:#181818;stroke-width:0.5;" width="4" x="443" y="154.29"/><rect fill="#F1F1F1" height="2" style="stroke:#181818;stroke-width:0.5;" width="4" x="443" y="158.29"/><text fill="#000000" font-family="sans-serif" font-size="14" lengthAdjust="spacing" textLength="106" x="334" y="180.2851">Version Control</text></g><!--entity Listening Mode--><g id="elem_Listening Mode"><rect fill="#F1F1F1" height="46.2969" rx="2.5" ry="2.5" style="stroke:#181818;stroke-width:0.5;" width="145" x="997.5" y="41"/><rect fill="#F1F1F1" height="10" style="stroke:#181818;stroke-width:0.5;" width="15" x="1122.5" y="46"/><rect fill="#F1F1F1" height="2" style="stroke:#181818;stroke-width:0.5;" width="4" x="1120.5" y="48"/><rect fill="#F1F1F1" height="2" style="stroke:#181818;stroke-width:0.5;" width="4" x="1120.5" y="52"/><text fill="#000000" font-family="sans-serif" font-size="14" lengthAdjust="spacing" textLength="105" x="1012.5" y="73.9951">Listening Mode</text></g><!--entity Send Mode--><g id="elem_Send Mode"><rect fill="#F1F1F1" height="46.2969" rx="2.5" ry="2.5" style="stroke:#181818;stroke-width:0.5;" width="119" x="843.5" y="41"/><rect fill="#F1F1F1" height="10" style="stroke:#181818;stroke-width:0.5;" width="15" x="942.5" y="46"/><rect fill="#F1F1F1" height="2" style="stroke:#181818;stroke-width:0.5;" width="4" x="940.5" y="48"/><rect fill="#F1F1F1" height="2" style="stroke:#181818;stroke-width:0.5;" width="4" x="940.5" y="52"/><text fill="#000000" font-family="sans-serif" font-size="14" lengthAdjust="spacing" textLength="79" x="858.5" y="73.9951">Send Mode</text></g><!--entity Logs--><g id="elem_Logs"><rect fill="#F1F1F1" height="46.2969" rx="2.5" ry="2.5" style="stroke:#181818;stroke-width:0.5;" width="73" x="735.5" y="41"/><rect fill="#F1F1F1" height="10" style="stroke:#181818;stroke-width:0.5;" width="15" x="788.5" y="46"/><rect fill="#F1F1F1" height="2" style="stroke:#181818;stroke-width:0.5;" width="4" x="786.5" y="48"/><rect fill="#F1F1F1" height="2" style="stroke:#181818;stroke-width:0.5;" width="4" x="786.5" y="52"/><text fill="#000000" font-family="sans-serif" font-size="14" lengthAdjust="spacing" textLength="33" x="750.5" y="73.9951">Logs</text></g><!--SRC=[PO_12i8m38RlVOgmYwVXGsppueOocHVPeNIX5hUqj1KSuhlRTXCKJ_d_97pviu52JqOJaeTISMdvn9ZXuiObGjOvjD1m2cOA6nay6S2bHQcSjzmhJNrir5ggHUrnXkeXhfmazkprXTgf4VzHHTkLS32um5nYL2JiRABVblYHQN96wu8EaSbRFVuUE2BQtEiyrlZKT2Sb4dQzLOVGI8eaD7h013mX3QiBgFX7YF06]--></g></svg>