<?xml version="1.0" encoding="us-ascii" standalone="no"?><svg xmlns="http://www.w3.org/2000/svg" xmlns:xlink="http://www.w3.org/1999/xlink" contentStyleType="text/css" height="433px" preserveAspectRatio="none" style="width:1999px;height:433px;background:#FFFFFF;" version="1.1" viewBox="0 0 1999 433" width="1999px" zoomAndPan="magnify"><defs/><g><!--cluster User Device--><g id="cluster_User Device"><polygon fill="none" points="16,16,26,6,1239,6,1239,406.59,1229,416.59,16,416.59,16,16" style="stroke:#181818;stroke-width:1.0;"/><line style="stroke:#181818;stroke-width:1.0;" x1="1229" x2="1239" y1="16" y2="6"/><line style="stroke:#181818;stroke-width:1.0;" x1="16" x2="1229" y1="16" y2="16"/><line style="stroke:#181818;stroke-width:1.0;" x1="1229" x2="1229" y1="16" y2="416.59"/><text fill="#000000" font-family="sans-serif" font-size="14" font-weight="bold" lengthAdjust="spacing" textLength="95" x="576" y="31.9951">User Device</text></g><!--cluster User Management--><g id="cluster_User Management"><path d="M935.5,62 L1079.5,62 A3.75,3.75 0 0 1 1082,64.5 L1089,84.2969 L1196.5,84.2969 A2.5,2.5 0 0 1 1199,86.7969 L1199,382.09 A2.5,2.5 0 0 1 1196.5,384.59 L935.5,384.59 A2.5,2.5 0 0 1 933,382.09 L933,64.5 A2.5,2.5 0 0 1 935.5,62 " fill="none" style="stroke:#000000;stroke-width:1.5;"/><line style="stroke:#000000;stroke-width:1.5;" x1="933" x2="1089" y1="84.2969" y2="84.2969"/><text fill="#000000" font-family="sans-serif" font-size="14" font-weight="bold" lengthAdjust="spacing" textLength="143" x="937" y="76.9951">User Management</text></g><!--cluster File Management--><g id="cluster_File Management"><path d="M490.5,62 L624.5,62 A3.75,3.75 0 0 1 627,64.5 L634,84.2969 L906.5,84.2969 A2.5,2.5 0 0 1 909,86.7969 L909,382.09 A2.5,2.5 0 0 1 906.5,384.59 L490.5,384.59 A2.5,2.5 0 0 1 488,382.09 L488,64.5 A2.5,2.5 0 0 1 490.5,62 " fill="none" style="stroke:#000000;stroke-width:1.5;"/><line style="stroke:#000000;stroke-width:1.5;" x1="488" x2="634" y1="84.2969" y2="84.2969"/><text fill="#000000" font-family="sans-serif" font-size="14" font-weight="bold" lengthAdjust="spacing" textLength="133" x="492" y="76.9951">File Management</text></g><!--cluster Peer-to-Peer Communication--><g id="cluster_Peer-to-Peer Communication"><path d="M134.5,62 L363.5,62 A3.75,3.75 0 0 1 366,64.5 L373,84.2969 L461.5,84.2969 A2.5,2.5 0 0 1 464,86.7969 L464,156.79 A2.5,2.5 0 0 1 461.5,159.29 L134.5,159.29 A2.5,2.5 0 0 1 132,156.79 L132,64.5 A2.5,2.5 0 0 1 134.5,62 " fill="none" style="stroke:#000000;stroke-width:1.5;"/><line style="stroke:#000000;stroke-width:1.5;" x1="132" x2="373" y1="84.2969" y2="84.2969"/><text fill="#000000" font-family="sans-serif" font-size="14" font-weight="bold" lengthAdjust="spacing" textLength="228" x="136" y="76.9951">Peer-to-Peer Communication</text></g><!--cluster Database--><g id="cluster_Database"><polygon fill="none" points="1279,226.29,1289,216.29,1982,216.29,1982,406.59,1972,416.59,1279,416.59,1279,226.29" style="stroke:#181818;stroke-width:1.0;"/><line style="stroke:#181818;stroke-width:1.0;" x1="1972" x2="1982" y1="226.29" y2="216.29"/><line style="stroke:#181818;stroke-width:1.0;" x1="1279" x2="1972" y1="226.29" y2="226.29"/><line style="stroke:#181818;stroke-width:1.0;" x1="1972" x2="1972" y1="226.29" y2="416.59"/><text fill="#000000" font-family="sans-serif" font-size="14" font-weight="bold" lengthAdjust="spacing" textLength="73" x="1590" y="242.2851">Database</text></g><!--cluster User Data--><g id="cluster_User Data"><path d="M1611,282.29 C1611,272.29 1780.5,272.29 1780.5,272.29 C1780.5,272.29 1950,272.29 1950,282.29 L1950,374.59 C1950,384.59 1780.5,384.59 1780.5,384.59 C1780.5,384.59 1611,384.59 1611,374.59 L1611,282.29 " fill="none" style="stroke:#181818;stroke-width:1.0;"/><path d="M1611,282.29 C1611,292.29 1780.5,292.29 1780.5,292.29 C1780.5,292.29 1950,292.29 1950,282.29 " fill="none" style="stroke:#181818;stroke-width:1.0;"/><text fill="#000000" font-family="sans-serif" font-size="14" font-weight="bold" lengthAdjust="spacing" textLength="77" x="1742" y="307.2851">User Data</text></g><!--cluster File Data--><g id="cluster_File Data"><path d="M1319,282.29 C1319,272.29 1453,272.29 1453,272.29 C1453,272.29 1587,272.29 1587,282.29 L1587,374.59 C1587,384.59 1453,384.59 1453,384.59 C1453,384.59 1319,384.59 1319,374.59 L1319,282.29 " fill="none" style="stroke:#181818;stroke-width:1.0;"/><path d="M1319,282.29 C1319,292.29 1453,292.29 1453,292.29 C1453,292.29 1587,292.29 1587,282.29 " fill="none" style="stroke:#181818;stroke-width:1.0;"/><text fill="#000000" font-family="sans-serif" font-size="14" font-weight="bold" lengthAdjust="spacing" textLength="67" x="1419.5" y="307.2851">File Data</text></g><!--entity Logs--><g id="elem_Logs"><rect fill="#F1F1F1" height="46.2969" rx="2.5" ry="2.5" style="stroke:#181818;stroke-width:0.5;" width="73" x="40.5" y="97"/><rect fill="#F1F1F1" height="10" style="stroke:#181818;stroke-width:0.5;" width="15" x="93.5" y="102"/><rect fill="#F1F1F1" height="2" style="stroke:#181818;stroke-width:0.5;" width="4" x="91.5" y="104"/><rect fill="#F1F1F1" height="2" style="stroke:#181818;stroke-width:0.5;" width="4" x="91.5" y="108"/><text fill="#000000" font-family="sans-serif" font-size="14" lengthAdjust="spacing" textLength="33" x="55.5" y="129.9951">Logs</text></g><!--entity Registration--><g id="elem_Registration"><rect fill="#F1F1F1" height="46.2969" rx="2.5" ry="2.5" style="stroke:#181818;stroke-width:0.5;" width="123" x="948.5" y="97"/><rect fill="#F1F1F1" height="10" style="stroke:#181818;stroke-width:0.5;" width="15" x="1051.5" y="102"/><rect fill="#F1F1F1" height="2" style="stroke:#181818;stroke-width:0.5;" width="4" x="1049.5" y="104"/><rect fill="#F1F1F1" height="2" style="stroke:#181818;stroke-width:0.5;" width="4" x="1049.5" y="108"/><text fill="#000000" font-family="sans-serif" font-size="14" lengthAdjust="spacing" textLength="83" x="963.5" y="129.9951">Registration</text></g><!--entity Login--><g id="elem_Login"><rect fill="#F1F1F1" height="46.2969" rx="2.5" ry="2.5" style="stroke:#181818;stroke-width:0.5;" width="77" x="1106.5" y="97"/><rect fill="#F1F1F1" height="10" style="stroke:#181818;stroke-width:0.5;" width="15" x="1163.5" y="102"/><rect fill="#F1F1F1" height="2" style="stroke:#181818;stroke-width:0.5;" width="4" x="1161.5" y="104"/><rect fill="#F1F1F1" height="2" style="stroke:#181818;stroke-width:0.5;" width="4" x="1161.5" y="108"/><text fill="#000000" font-family="sans-serif" font-size="14" lengthAdjust="spacing" textLength="37" x="1121.5" y="129.9951">Login</text></g><!--entity Key Exchange--><g id="elem_Key Exchange"><rect fill="#F1F1F1" height="46.2969" rx="2.5" ry="2.5" style="stroke:#181818;stroke-width:0.5;" width="137" x="949.5" y="322.29"/><rect fill="#F1F1F1" height="10" style="stroke:#181818;stroke-width:0.5;" width="15" x="1066.5" y="327.29"/><rect fill="#F1F1F1" height="2" style="stroke:#181818;stroke-width:0.5;" width="4" x="1064.5" y="329.29"/><rect fill="#F1F1F1" height="2" style="stroke:#181818;stroke-width:0.5;" width="4" x="1064.5" y="333.29"/><text fill="#000000" font-family="sans-serif" font-size="14" lengthAdjust="spacing" textLength="97" x="964.5" y="355.2851">Key Exchange</text></g><!--entity CRUD Operations--><g id="elem_CRUD Operations"><rect fill="#F1F1F1" height="46.2969" rx="2.5" ry="2.5" style="stroke:#181818;stroke-width:0.5;" width="161" x="503.5" y="97"/><rect fill="#F1F1F1" height="10" style="stroke:#181818;stroke-width:0.5;" width="15" x="644.5" y="102"/><rect fill="#F1F1F1" height="2" style="stroke:#181818;stroke-width:0.5;" width="4" x="642.5" y="104"/><rect fill="#F1F1F1" height="2" style="stroke:#181818;stroke-width:0.5;" width="4" x="642.5" y="108"/><text fill="#000000" font-family="sans-serif" font-size="14" lengthAdjust="spacing" textLength="121" x="518.5" y="129.9951">CRUD Operations</text></g><!--entity Encryption/Decryption--><g id="elem_Encryption/Decryption"><rect fill="#F1F1F1" height="46.2969" rx="2.5" ry="2.5" style="stroke:#181818;stroke-width:0.5;" width="193" x="699.5" y="97"/><rect fill="#F1F1F1" height="10" style="stroke:#181818;stroke-width:0.5;" width="15" x="872.5" y="102"/><rect fill="#F1F1F1" height="2" style="stroke:#181818;stroke-width:0.5;" width="4" x="870.5" y="104"/><rect fill="#F1F1F1" height="2" style="stroke:#181818;stroke-width:0.5;" width="4" x="870.5" y="108"/><text fill="#000000" font-family="sans-serif" font-size="14" lengthAdjust="spacing" textLength="153" x="714.5" y="129.9951">Encryption/Decryption</text></g><!--entity Version Control--><g id="elem_Version Control"><rect fill="#F1F1F1" height="46.2969" rx="2.5" ry="2.5" style="stroke:#181818;stroke-width:0.5;" width="146" x="511" y="322.29"/><rect fill="#F1F1F1" height="10" style="stroke:#181818;stroke-width:0.5;" width="15" x="637" y="327.29"/><rect fill="#F1F1F1" height="2" style="stroke:#181818;stroke-width:0.5;" width="4" x="635" y="329.29"/><rect fill="#F1F1F1" height="2" style="stroke:#181818;stroke-width:0.5;" width="4" x="635" y="333.29"/><text fill="#000000" font-family="sans-serif" font-size="14" lengthAdjust="spacing" textLength="106" x="526" y="355.2851">Version Control</text></g><!--entity Listening Mode--><g id="elem_Listening Mode"><rect fill="#F1F1F1" height="46.2969" rx="2.5" ry="2.5" style="stroke:#181818;stroke-width:0.5;" width="145" x="302.5" y="97"/><rect fill="#F1F1F1" height="10" style="stroke:#181818;stroke-width:0.5;" width="15" x="427.5" y="102"/><rect fill="#F1F1F1" height="2" style="stroke:#181818;stroke-width:0.5;" width="4" x="425.5" y="104"/><rect fill="#F1F1F1" height="2" style="stroke:#181818;stroke-width:0.5;" width="4" x="425.5" y="108"/><text fill="#000000" font-family="sans-serif" font-size="14" lengthAdjust="spacing" textLength="105" x="317.5" y="129.9951">Listening Mode</text></g><!--entity Send Mode--><g id="elem_Send Mode"><rect fill="#F1F1F1" height="46.2969" rx="2.5" ry="2.5" style="stroke:#181818;stroke-width:0.5;" width="119" x="148.5" y="97"/><rect fill="#F1F1F1" height="10" style="stroke:#181818;stroke-width:0.5;" width="15" x="247.5" y="102"/><rect fill="#F1F1F1" height="2" style="stroke:#181818;stroke-width:0.5;" width="4" x="245.5" y="104"/><rect fill="#F1F1F1" height="2" style="stroke:#181818;stroke-width:0.5;" width="4" x="245.5" y="108"/><text fill="#000000" font-family="sans-serif" font-size="14" lengthAdjust="spacing" textLength="79" x="163.5" y="129.9951">Send Mode</text></g><!--entity User Credentials--><g id="elem_User Credentials"><rect fill="#F1F1F1" height="46.2969" rx="2.5" ry="2.5" style="stroke:#181818;stroke-width:0.5;" width="154" x="1780" y="322.29"/><rect fill="#F1F1F1" height="10" style="stroke:#181818;stroke-width:0.5;" width="15" x="1914" y="327.29"/><rect fill="#F1F1F1" height="2" style="stroke:#181818;stroke-width:0.5;" width="4" x="1912" y="329.29"/><rect fill="#F1F1F1" height="2" style="stroke:#181818;stroke-width:0.5;" width="4" x="1912" y="333.29"/><text fill="#000000" font-family="sans-serif" font-size="14" lengthAdjust="spacing" textLength="114" x="1795" y="355.2851">User Credentials</text></g><!--entity Public Keys--><g id="elem_Public Keys"><rect fill="#F1F1F1" height="46.2969" rx="2.5" ry="2.5" style="stroke:#181818;stroke-width:0.5;" width="118" x="1627" y="322.29"/><rect fill="#F1F1F1" height="10" style="stroke:#181818;stroke-width:0.5;" width="15" x="1725" y="327.29"/><rect fill="#F1F1F1" height="2" style="stroke:#181818;stroke-width:0.5;" width="4" x="1723" y="329.29"/><rect fill="#F1F1F1" height="2" style="stroke:#181818;stroke-width:0.5;" width="4" x="1723" y="333.29"/><text fill="#000000" font-family="sans-serif" font-size="14" lengthAdjust="spacing" textLength="78" x="1642" y="355.2851">Public Keys</text></g><!--entity Files--><g id="elem_Files"><rect fill="#F1F1F1" height="46.2969" rx="2.5" ry="2.5" style="stroke:#181818;stroke-width:0.5;" width="71" x="1500.5" y="322.29"/><rect fill="#F1F1F1" height="10" style="stroke:#181818;stroke-width:0.5;" width="15" x="1551.5" y="327.29"/><rect fill="#F1F1F1" height="2" style="stroke:#181818;stroke-width:0.5;" width="4" x="1549.5" y="329.29"/><rect fill="#F1F1F1" height="2" style="stroke:#181818;stroke-width:0.5;" width="4" x="1549.5" y="333.29"/><text fill="#000000" font-family="sans-serif" font-size="14" lengthAdjust="spacing" textLength="31" x="1515.5" y="355.2851">Files</text></g><!--entity File Metadata--><g id="elem_File Metadata"><rect fill="#F1F1F1" height="46.2969" rx="2.5" ry="2.5" style="stroke:#181818;stroke-width:0.5;" width="131" x="1334.5" y="322.29"/><rect fill="#F1F1F1" height="10" style="stroke:#181818;stroke-width:0.5;" width="15" x="1445.5" y="327.29"/><rect fill="#F1F1F1" height="2" style="stroke:#181818;stroke-width:0.5;" width="4" x="1443.5" y="329.29"/><rect fill="#F1F1F1" height="2" style="stroke:#181818;stroke-width:0.5;" width="4" x="1443.5" y="333.29"/><text fill="#000000" font-family="sans-serif" font-size="14" lengthAdjust="spacing" textLength="91" x="1349.5" y="355.2851">File Metadata</text></g><!--link User Device to Database--><g id="link_User Device_Database"><path d="M1239.0643,153.3003 C1239.1414,153.6077 1239.2189,153.9168 1239.2968,154.2275 C1239.6085,155.4703 1239.9269,156.7395 1240.2514,158.0334 C1245.4441,178.7369 1252.2281,205.7863 1259.0113,232.8325 C1265.7944,259.8787 1272.5766,286.9219 1277.7655,307.6128 C1278.0898,308.906 1278.4079,310.1744 1278.7193,311.4164 C1278.7972,311.7269 1277.4152,306.2159 1277.4922,306.5231 " fill="none" id="User Device-to-Database" style="stroke:#181818;stroke-width:1.0;"/><polygon fill="#181818" points="1278.9517,312.3429,1280.6423,302.6402,1277.7355,307.4931,1272.8826,304.5862,1278.9517,312.3429" style="stroke:#181818;stroke-width:1.0;"/><text fill="#000000" font-family="sans-serif" font-size="13" lengthAdjust="spacing" textLength="80" x="1249" y="188.3569">Data Access</text></g><!--SRC=[RP71JiCm38RlVGfhbvqgxXoGfdPSsCGqD2w8WvTQ8LhhL4c6gD3U7QTfoYOu9VuTVxR_BA6clhL3HnoWDgWTTaN1jY5O73mvINyQHGluBW1wL2VKERD5bY0MfYp0svwqyS5XC9RVaxInskJx4msm_b8Vo9gYTBbcFfgM_cDM-qCDppqbgfzGQrPkwADoLrE-JhbNSbuYg2m7Pzi_dNP4hWosZASywhep6pNIvwORMOFOi8QjM35nNuYREOx4k9mCTCc6rHZmY7vogvcYRAI4CtzKAaUDR6gmpLljpiVMA12VVExnInaDkg549PSc-oXWB4Z5CjVj7vRbm_MGzoCDLagHzyKF]--></g></svg>